<?xml version="1.0" encoding="UTF-8"?>
<svg width="21px" height="30px" viewBox="0 0 21 30" version="1.1" xmlns="http://www.w3.org/2000/svg" xmlns:xlink="http://www.w3.org/1999/xlink">
    <!-- Generator: Sketch 42 (36781) - http://www.bohemiancoding.com/sketch -->
    <title>place copy</title>
    <desc>Created with Sketch.</desc>
    <defs></defs>
    <g id="Page-1" stroke="none" stroke-width="1" fill="none" fill-rule="evenodd">
        <g id="reklama_dodaj" transform="translate(-810.000000, -306.000000)" fill="#D0011B">
            <g id="place-copy" transform="translate(810.000000, 306.000000)">
                <path d="M10.5,0 C4.65,0 0,4.65 0,10.5 C0,18.3 10.5,30 10.5,30 C10.5,30 21,18.3 21,10.5 C21,4.65 16.35,0 10.5,0 L10.5,0 Z M10.5,14.25 C8.4,14.25 6.75,12.6 6.75,10.5 C6.75,8.4 8.4,6.75 10.5,6.75 C12.6,6.75 14.25,8.4 14.25,10.5 C14.25,12.6 12.6,14.25 10.5,14.25 L10.5,14.25 Z" id="Shape"></path>
            </g>
        </g>
    </g>
</svg>