<?xml version="1.0" encoding="UTF-8"?>
<svg width="28px" height="24px" viewBox="0 0 28 24" version="1.1" xmlns="http://www.w3.org/2000/svg" xmlns:xlink="http://www.w3.org/1999/xlink">
    <!-- Generator: Sketch 42 (36781) - http://www.bohemiancoding.com/sketch -->
    <title>icon_drukuj</title>
    <desc>Created with Sketch.</desc>
    <defs></defs>
    <g id="Page-1" stroke="none" stroke-width="1" fill="none" fill-rule="evenodd">
        <g id="grafik_uzupelniony" transform="translate(-1038.000000, -166.000000)" fill="#D0011B">
            <path d="M1061.8,172.666667 L1042.2,172.666667 C1039.82,172.666667 1038,174.4 1038,176.666667 L1038,184.666667 L1043.6,184.666667 L1043.6,190 L1060.4,190 L1060.4,184.666667 L1066,184.666667 L1066,176.666667 C1066,174.4 1064.18,172.666667 1061.8,172.666667 L1061.8,172.666667 Z M1057.6,187.333333 L1046.4,187.333333 L1046.4,180.666667 L1057.6,180.666667 L1057.6,187.333333 L1057.6,187.333333 Z M1061.8,178 C1060.96,178 1060.4,177.466667 1060.4,176.666667 C1060.4,175.866667 1060.96,175.333333 1061.8,175.333333 C1062.64,175.333333 1063.2,175.866667 1063.2,176.666667 C1063.2,177.466667 1062.64,178 1061.8,178 L1061.8,178 Z M1060.4,166 L1043.6,166 L1043.6,171.333333 L1060.4,171.333333 L1060.4,166 L1060.4,166 Z" id="icon_drukuj"></path>
        </g>
    </g>
</svg>