<?xml version="1.0" encoding="UTF-8"?>
<svg width="236px" height="60px" viewBox="0 0 236 60" version="1.1" xmlns="http://www.w3.org/2000/svg" xmlns:xlink="http://www.w3.org/1999/xlink">
    <!-- Generator: Sketch 42 (36781) - http://www.bohemiancoding.com/sketch -->
    <title>logo</title>
    <desc>Created with Sketch.</desc>
    <defs>
        <polygon id="path-1" points="89.8476923 56.2237762 0 56.2237762 0 28.1802405 0 0.13670477 89.8476923 0.13670477"></polygon>
        <path d="M88.4637249,59.5804196 L88.5009428,59.5804196 C89.2571809,59.5709388 89.8476923,58.9835534 89.8476923,58.1970629 L89.8476923,38.5430769 C89.8476923,37.6925874 89.919021,36.3037762 90.0067133,35.4579021 L93.5257343,1.34223776 C93.6045599,0.578235482 93.1086822,0.0216603827 92.391779,0.0125874126 L92.3560806,0.0125874126 C92.290443,0.0134126229 92.2230368,0.0187827374 92.1541259,0.028951049 L11.6337063,11.8934266 C10.7916084,12.0167832 9.41118881,12.1955245 8.56531469,12.2882517 L1.53776224,13.0623776 C0.691888112,13.1555245 0,13.9275524 0,14.7793007 L0,48.0427972 C0,48.8937063 0.691888112,49.6682517 1.53692308,49.7639161 L88.3107692,59.5707692 C88.3623663,59.5766104 88.4133924,59.5797907 88.463725,59.5804196 L88.4637249,59.5804196 Z" id="path-3"></path>
    </defs>
    <g id="Page-1" stroke="none" stroke-width="1" fill="none" fill-rule="evenodd">
        <g id="grafik_uzupelniony" transform="translate(-250.000000, -25.000000)">
            <g id="logo" transform="translate(250.000000, 25.000000)">
                <path d="M233.098657,37.0871329 C233.342434,37.9023776 232.853622,38.6718881 232.011944,38.7973427 L93.3548811,59.480979 C92.514042,59.6064336 91.8926434,59.0165035 91.9757203,58.1693706 L97.2628531,3.97216783 C97.3459301,3.12545455 98.1045315,2.51370629 98.949986,2.61230769 L225.744671,17.4474126 C226.589706,17.5472727 227.480056,18.2945455 227.723832,19.1097902 L233.098657,37.0871329 Z" id="Fill-1" fill="#FFDD00"></path>
                <path d="M235.558364,38.5093427 C235.558364,39.3598322 234.865636,40.1264056 234.019343,40.2132587 L97.9418601,54.1072448 C97.0947273,54.1932587 96.4024196,53.5680839 96.4024196,52.7167552 L96.4024196,2.98976224 C96.4024196,2.13885315 97.0947273,1.51577622 97.941021,1.60430769 L234.020601,15.8528392 C234.865636,15.9413706 235.558364,16.710042 235.558364,17.560951 L235.558364,38.5093427 Z" id="Fill-3" fill="#ED1C24"></path>
                <path d="M106.001622,31.8825315 C106.001622,32.1074266 106.174909,32.352042 106.387636,32.427986 C106.387636,32.427986 107.623301,32.8626713 108.565678,32.8626713 C110.870014,32.8626713 112.020503,31.4788951 112.020503,28.7096643 C112.020503,26.2966573 110.876727,25.0882657 108.588336,25.0882657 C107.601483,25.0882657 106.740503,25.173021 106.001622,25.3416923 L106.001622,31.8825315 Z M104.046378,24.3246294 C104.046378,24.0988951 104.228895,23.8878462 104.450853,23.8534406 C104.450853,23.8534406 107.038825,23.4611329 108.608476,23.4611329 C112.164839,23.4611329 113.941762,25.2195944 113.941762,28.7314825 C113.941762,32.6105035 112.15393,34.5519021 108.578266,34.5519021 C107.691692,34.5519021 106.830713,34.3760979 106.001622,34.0228112 L106.001622,38.1552587 C106.001622,38.3797343 105.817846,38.5643497 105.592112,38.5643497 L104.455049,38.5643497 C104.230993,38.5643497 104.046378,38.3797343 104.046378,38.1552587 L104.046378,24.3246294 Z" id="Fill-5" fill="#FEFEFE"></path>
                <path d="M106.074965,25.4003497 L106.074965,31.8824476 C106.074965,32.0754545 106.229371,32.2936364 106.412308,32.3586713 C106.424476,32.3628671 107.647133,32.7891608 108.565594,32.7891608 C110.840979,32.7891608 111.947413,31.4548951 111.947413,28.71 C111.947413,26.3221678 110.848531,25.1616084 108.588252,25.1616084 C107.639161,25.1616084 106.794126,25.2417483 106.074965,25.4003497 M108.565594,32.936014 C107.621958,32.936014 106.414406,32.5151748 106.363217,32.4971329 C106.119021,32.4102797 105.928112,32.1400699 105.928112,31.8824476 L105.928112,25.2832867 L105.985175,25.2698601 C106.727413,25.1007692 107.603077,25.0147552 108.588252,25.0147552 C110.914406,25.0147552 112.093846,26.257972 112.093846,28.71 C112.093846,31.5140559 110.906853,32.936014 108.565594,32.936014 M108.608811,23.5344755 C107.062238,23.5344755 104.487692,23.9225874 104.461678,23.9259441 C104.276643,23.9548951 104.11972,24.1374126 104.11972,24.324965 L104.11972,38.1551748 C104.11972,38.3402098 104.27035,38.4908392 104.455385,38.4908392 L105.592028,38.4908392 C105.777483,38.4908392 105.928112,38.3402098 105.928112,38.1551748 L105.928112,33.9115385 L106.03049,33.9551748 C106.844476,34.3025874 107.701678,34.4788112 108.578182,34.4788112 C112.088392,34.4788112 113.868252,32.544965 113.868252,28.7313986 C113.868252,25.2832867 112.098462,23.5344755 108.608811,23.5344755 M105.592028,38.6376923 L104.455385,38.6376923 C104.189371,38.6376923 103.973287,38.4211888 103.973287,38.1551748 L103.973287,24.324965 C103.973287,24.0648252 104.182238,23.8206294 104.439441,23.7811888 C104.465874,23.776993 107.051329,23.3876224 108.608811,23.3876224 C112.196224,23.3876224 114.015105,25.1855245 114.015105,28.7313986 C114.015105,32.6427273 112.185734,34.6252448 108.578182,34.6252448 C107.718462,34.6252448 106.877203,34.4599301 106.074965,34.1326573 L106.074965,38.1551748 C106.074965,38.4211888 105.858462,38.6376923 105.592028,38.6376923" id="Fill-7" fill="#FEFEFE"></path>
                <path d="M116.991608,34.552028 C116.767552,34.552028 116.583357,34.3674126 116.583357,34.1420979 L116.583357,23.8707692 C116.583357,23.645035 116.767552,23.4608392 116.991608,23.4608392 L117.493427,23.4608392 C117.718322,23.4608392 117.946573,23.6404196 118.00028,23.8586014 L118.153846,24.4808392 C118.206713,24.6986014 118.405175,24.7762238 118.592308,24.6516084 C118.592308,24.6516084 120.391888,23.4608392 121.758042,23.4608392 L121.758042,24.6797203 C121.758042,24.9046154 121.578042,25.1240559 121.356084,25.1664336 C121.356084,25.1664336 119.360979,25.5574825 118.535664,26.4931469 L118.535664,34.1420979 C118.535664,34.3674126 118.351888,34.552028 118.126573,34.552028 L116.991608,34.552028 Z" id="Fill-9" fill="#FEFEFE"></path>
                <path d="M116.991608,23.5343497 C116.806993,23.5343497 116.656783,23.684979 116.656783,23.8708531 L116.656783,34.1421818 C116.656783,34.3280559 116.806993,34.4786853 116.991608,34.4786853 L118.126573,34.4786853 C118.311608,34.4786853 118.462238,34.3280559 118.462238,34.1421818 L118.462238,26.4651189 L118.480699,26.4445594 C119.313147,25.5009231 121.25958,25.1107133 121.342238,25.0943497 C121.528112,25.0591049 121.685035,24.869035 121.685035,24.6793846 L121.685035,23.5356084 C120.365035,23.5771469 118.650629,24.7012028 118.633007,24.712951 C118.562517,24.7599441 118.486573,24.7842797 118.412308,24.7842797 C118.254545,24.7842797 118.124895,24.6722517 118.082517,24.4985455 L117.928951,23.8758881 C117.883217,23.6908531 117.683916,23.5343497 117.493427,23.5343497 L116.991608,23.5343497 Z M118.126573,34.6255385 L116.991608,34.6255385 C116.726014,34.6255385 116.50993,34.4086154 116.50993,34.1421818 L116.50993,23.8708531 C116.50993,23.6044196 116.726014,23.3874965 116.991608,23.3874965 L117.493427,23.3874965 C117.750629,23.3874965 118.00993,23.590993 118.071608,23.8406434 L118.224755,24.4633007 C118.265455,24.6269371 118.413147,24.6831608 118.552028,24.5908531 C118.626294,24.5413427 120.386014,23.3874965 121.758042,23.3874965 L121.831469,23.3874965 L121.831469,24.6793846 C121.831469,24.9395245 121.624615,25.190014 121.37035,25.2386853 C121.351049,25.242042 119.41972,25.6297343 118.608671,26.5213427 L118.608671,34.1421818 C118.608671,34.4086154 118.392587,34.6255385 118.126573,34.6255385 L118.126573,34.6255385 Z" id="Fill-11" fill="#FEFEFE"></path>
                <path d="M127.683944,29.3760839 C125.986322,29.3760839 125.13751,29.9752448 125.13751,31.1714685 C125.13751,32.368951 125.806741,32.9664336 127.145203,32.9664336 C128.495832,32.9664336 129.640867,32.6081119 130.57779,31.8893706 L130.57779,29.5871329 C129.611916,29.4478322 128.647301,29.3760839 127.683944,29.3760839 M123.183105,31.2046154 C123.183105,28.9296503 124.683524,27.7917483 127.683944,27.7917483 C128.647301,27.7917483 129.611916,27.8630769 130.57779,28.0036364 L130.57779,27.3667133 C130.57779,27.1405594 130.574434,26.6555245 130.562266,26.4688112 C130.562266,26.4688112 130.550098,25.046014 127.58786,25.046014 C126.447021,25.046014 125.278909,25.2218182 124.081427,25.5734266 L124.081427,24.3981818 C124.081427,24.1741259 124.260587,23.9500699 124.480028,23.9005594 C124.480028,23.9005594 126.447021,23.4608392 127.58786,23.4608392 C130.884503,23.4608392 132.530517,24.6104895 132.530517,26.9047552 L132.530517,34.1420979 C132.530517,34.3674126 132.346322,34.552028 132.121427,34.552028 L131.842406,34.552028 C131.61751,34.552028 131.336811,34.3942657 131.21849,34.2037762 L130.970937,33.800979 C130.853874,33.6088112 130.591217,33.5316084 130.38814,33.6281119 C130.38814,33.6281119 128.446741,34.552028 127.145203,34.552028 C124.503944,34.552028 123.183105,33.4351049 123.183105,31.2046154" id="Fill-13" fill="#FEFEFE"></path>
                <path d="M127.683944,29.4494266 C126.019888,29.4494266 125.210517,30.0129231 125.210517,31.1713846 C125.210517,32.3298462 125.843245,32.8929231 127.145203,32.8929231 C128.461007,32.8929231 129.590937,32.542993 130.504783,31.8532028 L130.504783,29.6504056 C129.55779,29.516979 128.609119,29.4494266 127.683944,29.4494266 M127.145203,33.0397762 C125.764364,33.0397762 125.064084,32.4112448 125.064084,31.1713846 C125.064084,29.9311049 125.945203,29.3025734 127.683944,29.3025734 C128.636811,29.3025734 129.614014,29.3739021 130.588699,29.5144615 L130.651217,29.5236923 L130.651217,31.9253706 L130.622685,31.9476084 C129.67779,32.6726434 128.508,33.0397762 127.145203,33.0397762 M130.576531,33.5134825 C130.764503,33.5134825 130.939888,33.6087273 131.033455,33.7627133 L131.281007,34.1650909 C131.386322,34.335021 131.643944,34.4785175 131.842406,34.4785175 L132.121427,34.4785175 C132.306462,34.4785175 132.457091,34.3278881 132.457091,34.1424336 L132.457091,26.9050909 C132.457091,24.6683077 130.819049,23.5341818 127.58786,23.5341818 C126.468,23.5341818 124.515692,23.968028 124.495972,23.9722238 C124.311357,24.0141818 124.154853,24.2092867 124.154853,24.3980979 L124.154853,25.4755804 C125.320867,25.1415944 126.475133,24.9725035 127.58786,24.9725035 C130.58828,24.9725035 130.635273,26.407049 130.635692,26.4683077 C130.647021,26.6436923 130.651217,27.1132028 130.651217,27.3666294 L130.651217,28.0883077 L130.567301,28.0761399 C129.604364,27.9364196 128.634713,27.8650909 127.683944,27.8650909 C124.704503,27.8650909 123.256531,28.9572587 123.256531,31.204951 C123.256531,33.4077483 124.52828,34.4785175 127.145203,34.4785175 C128.415692,34.4785175 130.337371,33.570965 130.356671,33.5617343 C130.424643,33.5294266 130.49849,33.5134825 130.576531,33.5134825 M132.121427,34.6253706 L131.842406,34.6253706 C131.595273,34.6253706 131.287301,34.4537622 131.155972,34.2427133 L130.90842,33.8394965 C130.814434,33.6855105 130.584084,33.6158601 130.420028,33.6943217 C130.339888,33.7325035 128.44842,34.6253706 127.145203,34.6253706 C124.467441,34.6253706 123.110098,33.4744615 123.110098,31.204951 C123.110098,28.8913846 124.649119,27.7182378 127.683944,27.7182378 C128.613734,27.7182378 129.562406,27.7853706 130.504783,27.9187972 L130.504783,27.3666294 C130.504783,27.1153007 130.500587,26.649986 130.489259,26.4733427 C130.488839,26.4561399 130.431357,25.1193566 127.58786,25.1193566 C126.459189,25.1193566 125.286462,25.296 124.102406,25.6442517 L124.008,25.6715245 L124.008,24.3980979 C124.008,24.1413147 124.212755,23.8857902 124.464084,23.8287273 C124.483804,23.8245315 126.451636,23.3877483 127.58786,23.3877483 C130.915972,23.3877483 132.603944,24.570965 132.603944,26.9050909 L132.603944,34.1424336 C132.603944,34.4084476 132.387441,34.6253706 132.121427,34.6253706" id="Fill-15" fill="#FEFEFE"></path>
                <path d="M134.586545,23.8572168 C134.53158,23.6394545 134.669622,23.4611329 134.894517,23.4611329 L136.051301,23.4611329 C136.274937,23.4611329 136.500252,23.6402937 136.551021,23.8601538 L138.333399,31.7545594 C138.383748,31.9744196 138.48235,31.9786154 138.553678,31.7658881 L141.178573,23.8488252 C141.249902,23.6369371 141.492,23.4611329 141.716895,23.4611329 L142.663049,23.4611329 C142.887944,23.4611329 143.132559,23.6356783 143.207664,23.8471469 L146.018434,31.767986 C146.093538,31.9798741 146.19214,31.9723217 146.237455,31.7528811 L147.849063,23.8622517 C147.893538,23.641972 148.114238,23.4611329 148.338294,23.4611329 L149.592,23.4611329 C149.817734,23.4611329 149.954937,23.6394545 149.897035,23.8572168 L147.209622,34.154979 C147.152559,34.3727413 146.921371,34.5519021 146.696476,34.5519021 L145.729762,34.5519021 C145.504028,34.5519021 145.255636,34.3798741 145.174238,34.1692448 L142.287524,26.6411329 C142.206965,26.4317622 142.078573,26.4326014 142.00221,26.6440699 L139.262769,34.1667273 C139.186406,34.379035 138.938014,34.5519021 138.713538,34.5519021 L137.703189,34.5519021 C137.478294,34.5519021 137.248783,34.3727413 137.193818,34.154979 L134.586545,23.8572168 Z" id="Fill-17" fill="#FEFEFE"></path>
                <path d="M142.143902,26.4111608 C142.193832,26.4111608 142.288238,26.4375944 142.35579,26.6146573 L145.242923,34.1431888 C145.312993,34.3248671 145.53579,34.4788531 145.729636,34.4788531 L146.696769,34.4788531 C146.887678,34.4788531 147.089916,34.3219301 147.138587,34.1364755 L149.82642,23.8387133 C149.847818,23.7556364 149.83607,23.6788531 149.792434,23.6226294 C149.749217,23.5655664 149.677888,23.5345175 149.591874,23.5345175 L148.338587,23.5345175 C148.149357,23.5345175 147.958448,23.6914406 147.921524,23.8764755 L146.309497,31.7679441 C146.278448,31.918993 146.219706,31.9957762 146.13621,31.9957762 C146.059846,31.9957762 145.996909,31.9273846 145.949077,31.7926993 L143.138308,23.8714406 C143.073692,23.6889231 142.85593,23.5345175 142.662923,23.5345175 L141.716769,23.5345175 C141.524182,23.5345175 141.309776,23.6893427 141.248098,23.8722797 L138.623203,31.7885035 C138.577469,31.9265455 138.514951,31.9961958 138.437748,31.9961958 C138.35551,31.9961958 138.29593,31.9202517 138.261524,31.7708811 L136.479147,23.8760559 C136.43635,23.6914406 136.240406,23.5345175 136.051175,23.5345175 L134.894811,23.5345175 C134.809636,23.5345175 134.738308,23.5655664 134.693832,23.6226294 C134.649776,23.6788531 134.636769,23.7560559 134.657748,23.8391329 L137.265021,34.1368951 C137.311594,34.3219301 137.512154,34.4788531 137.703063,34.4788531 L138.713413,34.4788531 C138.908098,34.4788531 139.127958,34.3244476 139.193413,34.1419301 L141.933273,26.6188531 C141.998308,26.438014 142.093552,26.4111608 142.143902,26.4111608 M146.696769,34.6252867 L145.729636,34.6252867 C145.472853,34.6252867 145.198448,34.4368951 145.10614,34.1956364 L142.219007,26.6671049 C142.184601,26.5773147 142.150615,26.5584336 142.143902,26.5584336 C142.137189,26.5584336 142.104042,26.5777343 142.070895,26.6687832 L139.331455,34.1918601 C139.24586,34.4306014 138.968517,34.6252867 138.713413,34.6252867 L137.703063,34.6252867 C137.44586,34.6252867 137.18572,34.4226294 137.122364,34.172979 L134.515091,23.8752168 C134.482783,23.7472448 134.505441,23.6251469 134.578028,23.532 C134.650615,23.4388531 134.763063,23.3876643 134.894811,23.3876643 L136.051175,23.3876643 C136.307958,23.3876643 136.564322,23.592 136.622643,23.8437483 L138.405021,31.7385734 C138.416769,31.7906014 138.430196,31.8216503 138.439846,31.838014 C138.450755,31.8220699 138.467119,31.7931189 138.483902,31.7423497 L141.108797,23.8261259 C141.190196,23.584028 141.462923,23.3876643 141.716769,23.3876643 L142.662923,23.3876643 C142.91635,23.3876643 143.191594,23.5827692 143.276769,23.8223497 L146.087538,31.7436084 C146.105161,31.7931189 146.121524,31.8220699 146.133273,31.8375944 C146.142084,31.8208112 146.155091,31.7897622 146.165161,31.7381538 L147.777189,23.8475245 C147.828378,23.5940979 148.079706,23.3876643 148.338587,23.3876643 L149.591874,23.3876643 C149.724042,23.3876643 149.836909,23.4392727 149.909077,23.5328392 C149.981245,23.6264056 150.002224,23.7480839 149.967818,23.8760559 L147.280406,34.1733986 C147.215371,34.4226294 146.953552,34.6252867 146.696769,34.6252867" id="Fill-19" fill="#FEFEFE"></path>
                <path d="M156.707538,32.9663077 C158.925021,32.9663077 160.034392,31.6328811 160.034392,28.9647692 C160.034392,26.3516224 158.925021,25.0458881 156.707538,25.0458881 C154.489636,25.0458881 153.379007,26.3516224 153.379007,28.9647692 C153.379007,31.6328811 154.489636,32.9663077 156.707538,32.9663077 M151.42586,29.0063077 C151.42586,25.3110629 153.18642,23.4611329 156.707538,23.4611329 C160.227399,23.4611329 161.988378,25.3110629 161.988378,29.0063077 C161.988378,32.6969371 160.227399,34.5418322 156.707538,34.5418322 C153.201105,34.5418322 151.439287,32.6969371 151.42586,29.0063077" id="Fill-21" fill="#FEFEFE"></path>
                <path d="M156.707538,25.1192308 C154.517329,25.1192308 153.452434,26.3771329 153.452434,28.9646853 C153.452434,31.608042 154.517329,32.8927972 156.707538,32.8927972 C158.896909,32.8927972 159.960965,31.608042 159.960965,28.9646853 C159.960965,26.3771329 158.896909,25.1192308 156.707538,25.1192308 M156.707538,33.0396503 C154.450196,33.0396503 153.306,31.6684615 153.306,28.9646853 C153.306,26.3158741 154.450196,24.9723776 156.707538,24.9723776 C158.963622,24.9723776 160.107818,26.3158741 160.107818,28.9646853 C160.107818,31.6684615 158.963622,33.0396503 156.707538,33.0396503 M156.707538,23.5344755 C153.251874,23.5344755 151.499287,25.3751748 151.499287,29.0066434 C151.512713,32.6305594 153.264881,34.4683217 156.707538,34.4683217 C160.162783,34.4683217 161.914951,32.6305594 161.914951,29.0066434 C161.914951,25.3751748 160.162783,23.5344755 156.707538,23.5344755 M156.707538,34.6151748 C153.167538,34.6151748 151.36628,32.7283217 151.352434,29.0070629 C151.352434,25.2782517 153.154112,23.3876224 156.707538,23.3876224 C160.260545,23.3876224 162.061804,25.2782517 162.061804,29.0066434 C162.061804,32.7283217 160.260545,34.6151748 156.707538,34.6151748" id="Fill-23" fill="#FEFEFE"></path>
                <path d="M166.580769,32.2111469 C166.580769,32.436042 166.761608,32.6588392 166.981888,32.7058322 C166.981888,32.7058322 168.001469,32.9248531 168.915734,32.9248531 C171.37993,32.9248531 172.611818,31.5205175 172.611818,28.7097483 C172.611818,26.3386993 171.496993,25.1525455 169.263986,25.1525455 C168.24986,25.1525455 167.356573,25.3417762 166.580769,25.7219161 L166.580769,32.2111469 Z M164.627622,19.8586993 C164.627622,19.6325455 164.812657,19.4487692 165.036713,19.4487692 L166.172517,19.4487692 C166.396993,19.4487692 166.580769,19.6325455 166.580769,19.8586993 L166.580769,23.5816364 C166.580769,23.8065315 166.756993,23.937021 166.973077,23.8707273 C166.973077,23.8707273 168.317413,23.4612168 169.276154,23.4612168 C172.781748,23.4612168 174.535175,25.2368811 174.535175,28.7844336 C174.535175,32.6298881 172.693217,34.551986 169.012657,34.551986 C167.41951,34.551986 165.95979,34.3996783 164.627622,34.0971608 L164.627622,19.8586993 Z" id="Fill-25" fill="#FEFEFE"></path>
                <path d="M166.654154,25.7678601 L166.654154,32.2109371 C166.654154,32.401007 166.811077,32.5948531 166.996951,32.6338741 C167.007441,32.635972 168.020308,32.8516364 168.916112,32.8516364 C171.353455,32.8516364 172.53835,31.4968112 172.53835,28.709958 C172.53835,26.3653427 171.46758,25.2257622 169.263944,25.2257622 C168.283804,25.2257622 167.406042,25.4082797 166.654154,25.7678601 L166.654154,25.7678601 Z M168.916112,32.9980699 C168.004364,32.9980699 166.976811,32.7798881 166.966322,32.7773706 C166.713734,32.7236643 166.507301,32.4698182 166.507301,32.2109371 L166.507301,25.675972 L166.54842,25.6558322 C167.329259,25.2731748 168.243105,25.0789091 169.263944,25.0789091 C171.534294,25.0789091 172.685203,26.3007273 172.685203,28.709958 C172.685203,31.5555524 171.417231,32.9980699 168.916112,32.9980699 L168.916112,32.9980699 Z M164.701007,34.0386294 C166.010098,34.3302378 167.460587,34.4787692 169.012615,34.4787692 C172.62814,34.4787692 174.461706,32.5625455 174.461706,28.7842238 C174.461706,25.3008671 172.717091,23.5344336 169.276112,23.5344336 C168.339189,23.5344336 167.00786,23.9368112 166.994434,23.941007 C166.73807,24.0215664 166.507301,23.8474406 166.507301,23.5814266 L166.507301,19.8584895 C166.507301,19.673035 166.357091,19.521986 166.172895,19.521986 L165.037091,19.521986 C164.851636,19.521986 164.701007,19.673035 164.701007,19.8584895 L164.701007,34.0386294 Z M169.012615,34.6252028 C167.427021,34.6252028 165.946322,34.4716364 164.611217,34.1686993 L164.554154,34.1556923 L164.554154,19.8584895 C164.554154,19.5920559 164.770657,19.3755524 165.037091,19.3755524 L166.172895,19.3755524 C166.43807,19.3755524 166.654154,19.5920559 166.654154,19.8584895 L166.654154,23.5814266 C166.654154,23.7521958 166.786322,23.849958 166.951217,23.8008671 C167.007021,23.7836643 168.317371,23.3875804 169.276112,23.3875804 C172.814853,23.3875804 174.608559,25.2031049 174.608559,28.7842238 C174.608559,32.6603077 172.725902,34.6252028 169.012615,34.6252028 L169.012615,34.6252028 Z" id="Fill-27" fill="#FEFEFE"></path>
                <path d="M177.58372,34.552028 C177.360084,34.552028 177.175469,34.3674126 177.175469,34.1420979 L177.175469,23.8707692 C177.175469,23.645035 177.360084,23.4608392 177.58372,23.4608392 L178.085958,23.4608392 C178.309594,23.4608392 178.539105,23.6404196 178.592392,23.8586014 L178.746378,24.4808392 C178.800084,24.6986014 178.998126,24.7762238 179.184839,24.6516084 C179.184839,24.6516084 180.985259,23.4608392 182.349734,23.4608392 L182.349734,24.6797203 C182.349734,24.9046154 182.170573,25.1240559 181.949035,25.1664336 C181.949035,25.1664336 179.952671,25.5574825 179.129035,26.4931469 L179.129035,34.1420979 C179.129035,34.3674126 178.944839,34.552028 178.719944,34.552028 L177.58372,34.552028 Z" id="Fill-29" fill="#FEFEFE"></path>
                <path d="M177.58372,23.5343497 C177.399524,23.5343497 177.248895,23.684979 177.248895,23.8708531 L177.248895,34.1421818 C177.248895,34.3280559 177.399524,34.4786853 177.58372,34.4786853 L178.719944,34.4786853 C178.904559,34.4786853 179.055608,34.3280559 179.055608,34.1421818 L179.055608,26.4651189 L179.07365,26.444979 C179.904,25.5009231 181.852531,25.1107133 181.935189,25.0943497 C182.120643,25.0591049 182.276727,24.869035 182.276727,24.6793846 L182.276727,23.5356084 C180.958406,23.5771469 179.243161,24.7012028 179.225538,24.712951 C179.155049,24.7599441 179.078685,24.7842797 179.005259,24.7842797 C178.847916,24.7842797 178.718266,24.6722517 178.675049,24.4985455 L178.521063,23.8758881 C178.476168,23.6908531 178.276448,23.5343497 178.085958,23.5343497 L177.58372,23.5343497 Z M178.719944,34.6255385 L177.58372,34.6255385 C177.318126,34.6255385 177.102462,34.4086154 177.102462,34.1421818 L177.102462,23.8708531 C177.102462,23.6044196 177.318126,23.3874965 177.58372,23.3874965 L178.085958,23.3874965 C178.34358,23.3874965 178.602881,23.590993 178.66372,23.8406434 L178.817287,24.4633007 C178.857986,24.6269371 179.004839,24.6831608 179.144559,24.5908531 C179.218406,24.5413427 180.979385,23.3874965 182.349734,23.3874965 L182.423161,23.3874965 L182.423161,24.6793846 C182.423161,24.9395245 182.216727,25.190014 181.963301,25.2386853 C181.944,25.242042 180.010993,25.6297343 179.202042,26.5209231 L179.202042,34.1421818 C179.202042,34.4086154 178.985958,34.6255385 178.719944,34.6255385 L178.719944,34.6255385 Z" id="Fill-31" fill="#FEFEFE"></path>
                <path d="M183.986014,23.8707692 C183.986014,23.645035 184.171888,23.4608392 184.396364,23.4608392 L192.238741,23.4608392 C192.462378,23.4608392 192.646993,23.645035 192.646993,23.8707692 L192.646993,24.6369231 C192.646993,24.860979 192.529091,25.1878322 192.386014,25.3606993 L186.285734,32.7583217 C186.143497,32.9316084 186.209371,33.0742657 186.434266,33.0742657 L192.029371,33.0742657 C192.253007,33.0742657 192.437622,33.2572028 192.437622,33.4820979 L192.437622,34.1420979 C192.437622,34.3674126 192.253007,34.552028 192.029371,34.552028 L184.184895,34.552028 C183.959161,34.552028 183.774965,34.3674126 183.774965,34.1420979 L183.774965,33.4820979 C183.774965,33.2572028 183.894126,32.9328671 184.037622,32.76 L190.218462,25.3598601 C190.363217,25.1865734 190.298182,25.046014 190.072448,25.046014 L184.396364,25.046014 C184.171888,25.046014 183.986014,24.860979 183.986014,24.6369231 L183.986014,23.8707692 Z" id="Fill-33" fill="#FEFEFE"></path>
                <path d="M184.396154,23.5343497 C184.210699,23.5343497 184.059231,23.684979 184.059231,23.8708531 L184.059231,24.637007 C184.059231,24.8191049 184.213636,24.9726713 184.396154,24.9726713 L190.072238,24.9726713 C190.26021,24.9726713 190.327343,25.0565874 190.350839,25.1065175 C190.374336,25.1564476 190.395734,25.2621818 190.275315,25.4069371 L184.094056,32.8070769 C183.961049,32.9669371 183.848182,33.2765874 183.848182,33.4821818 L183.848182,34.1421818 C183.848182,34.3280559 183.999231,34.4786853 184.184685,34.4786853 L192.029161,34.4786853 C192.213776,34.4786853 192.363986,34.3280559 192.363986,34.1421818 L192.363986,33.4821818 C192.363986,33.297986 192.213776,33.1473566 192.029161,33.1473566 L186.434056,33.1473566 C186.247343,33.1473566 186.17979,33.063021 186.155874,33.0130909 C186.132378,32.9627413 186.11014,32.8561678 186.229301,32.7114126 L192.329161,25.3137902 C192.461748,25.1539301 192.573357,24.8442797 192.573357,24.637007 L192.573357,23.8708531 C192.573357,23.684979 192.423147,23.5343497 192.238531,23.5343497 L184.396154,23.5343497 Z M192.029161,34.6255385 L184.184685,34.6255385 C183.918252,34.6255385 183.701748,34.4086154 183.701748,34.1421818 L183.701748,33.4821818 C183.701748,33.2400839 183.824266,32.9019021 183.981189,32.7130909 L190.162028,25.3125315 C190.210699,25.2546294 190.232098,25.1992448 190.217832,25.169035 C190.203566,25.137986 190.147762,25.1191049 190.072238,25.1191049 L184.396154,25.1191049 C184.129301,25.1191049 183.912797,24.903021 183.912797,24.637007 L183.912797,23.8708531 C183.912797,23.6044196 184.129301,23.3874965 184.396154,23.3874965 L192.238531,23.3874965 C192.504126,23.3874965 192.72021,23.6044196 192.72021,23.8708531 L192.72021,24.637007 C192.72021,24.877007 192.595594,25.2223217 192.442448,25.4073566 L186.342587,32.804979 C186.294336,32.8628811 186.274196,32.9186853 186.288881,32.9501538 C186.303566,32.9816224 186.359371,33.0009231 186.434056,33.0009231 L192.029161,33.0009231 C192.294755,33.0009231 192.510839,33.2165874 192.510839,33.4821818 L192.510839,34.1421818 C192.510839,34.4086154 192.294755,34.6255385 192.029161,34.6255385 L192.029161,34.6255385 Z" id="Fill-35" fill="#FEFEFE"></path>
                <path d="M196.714783,27.9399441 L202.303175,27.9399441 C202.52807,27.9399441 202.653524,27.7662378 202.580517,27.5530909 C202.580517,27.5530909 202.533524,26.3358881 202.003594,25.6561678 C201.559259,25.0809231 200.712965,25.0246993 199.862895,25.0246993 C197.889608,25.0246993 196.839399,25.9964476 196.714783,27.9399441 M199.862895,23.4609231 C203.014364,23.4609231 204.592406,25.0213427 204.592406,28.1409231 C204.592406,28.5852587 204.561776,29.0598042 204.498839,29.5679161 L197.123874,29.5679161 C196.898979,29.5679161 196.780657,29.7382657 196.863315,29.9488951 C196.863315,29.9488951 196.474783,32.9660979 200.687371,32.9660979 C201.946112,32.9660979 203.064713,32.8276364 204.044434,32.5444196 L204.044434,33.7192448 C204.044434,33.9445594 203.862755,34.1631608 203.642895,34.205958 C203.642895,34.205958 201.875622,34.5521119 200.475063,34.5521119 C196.665273,34.5521119 194.759958,32.6606434 194.759958,28.8793846 C194.759958,25.2676364 196.459259,23.4609231 199.862895,23.4609231" id="Fill-37" fill="#FEFEFE"></path>
                <path d="M196.793455,27.8666014 L202.303385,27.8666014 C202.38814,27.8666014 202.456112,27.8372308 202.494294,27.7835245 C202.532476,27.7298182 202.53835,27.6563916 202.511077,27.5770909 L202.507301,27.5561119 C202.506881,27.5439441 202.454434,26.354014 201.945902,25.7011469 C201.515832,25.1447832 200.681287,25.0977902 199.862685,25.0977902 C197.943105,25.0977902 196.938629,26.0040839 196.793455,27.8666014 M202.303385,28.0134545 L196.636531,28.0134545 L196.641566,27.9354126 C196.76828,25.954993 197.852056,24.9513566 199.862685,24.9513566 C200.71779,24.9513566 201.591357,25.0021259 202.062126,25.6109371 C202.579469,26.2755524 202.647441,27.4100979 202.653734,27.5397483 C202.692755,27.6618462 202.67849,27.7780699 202.613874,27.8686993 C202.548,27.9605874 202.434713,28.0134545 202.303385,28.0134545 M199.862685,23.5344336 C196.47835,23.5344336 194.833175,25.2828252 194.833175,28.8794685 C194.833175,32.5948531 196.731776,34.4787692 200.474853,34.4787692 C201.852755,34.4787692 203.611217,34.1372308 203.628839,34.1338741 C203.813874,34.0977902 203.970797,33.9077203 203.970797,33.7193287 L203.970797,32.6414266 C203.01793,32.9057622 201.913594,33.0396084 200.687161,33.0396084 C199.183804,33.0396084 198.08828,32.6607273 197.430797,31.913035 C196.705343,31.0885594 196.772895,30.1088392 196.788,29.9577902 C196.746881,29.8398881 196.756951,29.727021 196.817371,29.6389091 C196.879888,29.547021 196.991497,29.4945734 197.123664,29.4945734 L204.433594,29.4945734 C204.490657,29.0191888 204.519189,28.5643636 204.519189,28.1405874 C204.519189,25.0411469 202.996112,23.5344336 199.862685,23.5344336 M200.474853,34.6252028 C196.634014,34.6252028 194.686741,32.6921958 194.686741,28.8794685 C194.686741,25.2354126 196.428,23.3875804 199.862685,23.3875804 C203.049818,23.3875804 204.666042,24.987021 204.666042,28.1405874 C204.666042,28.5895385 204.634154,29.0724755 204.571636,29.5768112 L204.563664,29.641007 L197.123664,29.641007 C197.039748,29.641007 196.973874,29.669958 196.938629,29.7215664 C196.903804,29.7727552 196.900867,29.8440839 196.931497,29.9221259 L196.938629,29.9393287 L196.936112,29.9582098 C196.934853,29.9686993 196.814434,30.9916364 197.542406,31.8177902 C198.170937,32.5310769 199.229119,32.8927552 200.687161,32.8927552 C201.940448,32.8927552 203.062825,32.7521958 204.023664,32.4735944 L204.11765,32.4467413 L204.11765,33.7193287 C204.11765,33.9777902 203.910797,34.2286993 203.656531,34.2777902 C203.638909,34.2811469 201.866601,34.6252028 200.474853,34.6252028" id="Fill-39" fill="#FEFEFE"></path>
                <path d="M211.808601,19.4487692 C212.033077,19.4487692 212.217692,19.6325455 212.217692,19.8586993 L212.217692,21.0456923 C212.217692,21.271007 212.033077,21.4539441 211.808601,21.4539441 L210.460909,21.4539441 C210.236434,21.4539441 210.052657,21.271007 210.052657,21.0456923 L210.052657,19.8586993 C210.052657,19.6325455 210.236434,19.4487692 210.460909,19.4487692 L211.808601,19.4487692 Z M206.906643,23.8707273 C206.906643,23.644993 207.091259,23.4612168 207.316154,23.4612168 L215.157273,23.4612168 C215.382587,23.4612168 215.566783,23.644993 215.566783,23.8707273 L215.566783,24.6368811 C215.566783,24.8609371 215.448462,25.1877902 215.305804,25.3606573 L209.204266,32.7582797 C209.061608,32.9315664 209.127483,33.0742238 209.352378,33.0742238 L214.944545,33.0742238 C215.169441,33.0742238 215.354476,33.2571608 215.354476,33.4820559 L215.354476,34.1424755 C215.354476,34.3673706 215.169441,34.551986 214.944545,34.551986 L207.103007,34.551986 C206.878112,34.551986 206.695594,34.3673706 206.695594,34.1424755 L206.695594,33.4820559 C206.695594,33.2571608 206.813077,32.9328252 206.956993,32.759958 L213.13951,25.3598182 C213.284266,25.1865315 213.217972,25.045972 212.993077,25.045972 L207.316154,25.045972 C207.091259,25.045972 206.906643,24.8609371 206.906643,24.6368811 L206.906643,23.8707273 Z" id="Fill-41" fill="#FEFEFE"></path>
                <path d="M210.460951,19.5221119 C210.276755,19.5221119 210.126126,19.6727413 210.126126,19.8586154 L210.126126,21.0456084 C210.126126,21.2302238 210.276755,21.3808531 210.460951,21.3808531 L211.808643,21.3808531 C211.993259,21.3808531 212.144308,21.2302238 212.144308,21.0456084 L212.144308,19.8586154 C212.144308,19.6727413 211.993259,19.5221119 211.808643,19.5221119 L210.460951,19.5221119 Z M211.808643,21.5272867 L210.460951,21.5272867 C210.195357,21.5272867 209.979692,21.3116224 209.979692,21.0456084 L209.979692,19.8586154 C209.979692,19.5921818 210.195357,19.3752587 210.460951,19.3752587 L211.808643,19.3752587 C212.074657,19.3752587 212.290741,19.5921818 212.290741,19.8586154 L212.290741,21.0456084 C212.290741,21.3116224 212.074657,21.5272867 211.808643,21.5272867 L211.808643,21.5272867 Z M207.316196,23.5345594 C207.130741,23.5345594 206.980112,23.6851888 206.980112,23.8706434 L206.980112,24.6367972 C206.980112,24.8218322 207.130741,24.9724615 207.316196,24.9724615 L212.993119,24.9724615 C213.180252,24.9724615 213.248224,25.0563776 213.271301,25.1067273 C213.294797,25.1570769 213.316196,25.2628112 213.196196,25.4067273 L207.013259,32.8068671 C206.881091,32.9658881 206.769063,33.2751189 206.769063,33.481972 L206.769063,34.1423916 C206.769063,34.3278462 206.919273,34.4784755 207.103049,34.4784755 L214.944587,34.4784755 C215.130042,34.4784755 215.281091,34.3278462 215.281091,34.1423916 L215.281091,33.481972 C215.281091,33.2977762 215.130042,33.1475664 214.944587,33.1475664 L209.352,33.1475664 C209.165706,33.1475664 209.098154,33.0628112 209.074238,33.0128811 C209.050741,32.9625315 209.028503,32.8563776 209.147664,32.7116224 L215.249203,25.314 C215.38179,25.1533007 215.493399,24.8436503 215.493399,24.6367972 L215.493399,23.8706434 C215.493399,23.6851888 215.342769,23.5345594 215.157315,23.5345594 L207.316196,23.5345594 Z M214.944587,34.6253287 L207.103049,34.6253287 C206.837874,34.6253287 206.622629,34.4084056 206.622629,34.1423916 L206.622629,33.481972 C206.622629,33.2381958 206.744727,32.9004336 206.900392,32.7124615 L213.082909,25.3127413 C213.13158,25.2544196 213.152559,25.1994545 213.138294,25.1688252 C213.124028,25.1386154 213.068643,25.1193147 212.993119,25.1193147 L207.316196,25.1193147 C207.049762,25.1193147 206.833259,24.9028112 206.833259,24.6367972 L206.833259,23.8706434 C206.833259,23.6042098 207.049762,23.3877063 207.316196,23.3877063 L215.157315,23.3877063 C215.423748,23.3877063 215.640252,23.6042098 215.640252,23.8706434 L215.640252,24.6367972 C215.640252,24.875958 215.515636,25.2216923 215.36249,25.4071469 L209.260951,32.8047692 C209.212699,32.8630909 209.192559,32.9188951 209.207245,32.9503636 C209.22193,32.9814126 209.277734,33.0007133 209.352,33.0007133 L214.944587,33.0007133 C215.211021,33.0007133 215.427944,33.2167972 215.427944,33.481972 L215.427944,34.1423916 C215.427944,34.4084056 215.211021,34.6253287 214.944587,34.6253287 L214.944587,34.6253287 Z" id="Fill-43" fill="#FEFEFE"></path>
                <path d="M219.633944,27.9399441 L225.223175,27.9399441 C225.44807,27.9399441 225.571846,27.7662378 225.498839,27.5530909 C225.498839,27.5530909 225.451007,26.3358881 224.923594,25.6561678 C224.47758,25.0809231 223.632126,25.0246993 222.782476,25.0246993 C220.809608,25.0246993 219.758559,25.9964476 219.633944,27.9399441 M222.782476,23.4609231 C225.935203,23.4609231 227.512406,25.0213427 227.512406,28.1409231 C227.512406,28.5852587 227.480937,29.0598042 227.41758,29.5679161 L220.042196,29.5679161 C219.81772,29.5679161 219.700657,29.7382657 219.782056,29.9488951 C219.782056,29.9488951 219.393524,32.9660979 223.604434,32.9660979 C224.864853,32.9660979 225.983874,32.8276364 226.963594,32.5444196 L226.963594,33.7192448 C226.963594,33.9445594 226.781916,34.1631608 226.561636,34.205958 C226.561636,34.205958 224.794364,34.5521119 223.393804,34.5521119 C219.584434,34.5521119 217.679958,32.6606434 217.679958,28.8793846 C217.679958,25.2676364 219.37842,23.4609231 222.782476,23.4609231" id="Fill-45" fill="#FEFEFE"></path>
                <path d="M219.712615,27.8666014 L225.223385,27.8666014 C225.30772,27.8666014 225.374853,27.8372308 225.413035,27.7839441 C225.451217,27.7306573 225.456671,27.6572308 225.429399,27.5770909 L225.425203,27.5561119 C225.424783,27.5439441 225.372336,26.354014 224.865483,25.7011469 C224.434154,25.1447832 223.600028,25.0977902 222.782266,25.0977902 C220.862266,25.0977902 219.85779,26.0040839 219.712615,27.8666014 M225.223385,28.0134545 L219.555692,28.0134545 L219.560727,27.9354126 C219.687441,25.954993 220.771217,24.9513566 222.782266,24.9513566 C223.636531,24.9513566 224.509678,25.0021259 224.982126,25.6109371 C225.496951,26.2755524 225.565343,27.4096783 225.571636,27.5397483 C225.611077,27.6622657 225.596811,27.7789091 225.532615,27.8695385 C225.466322,27.9622657 225.356392,28.0134545 225.223385,28.0134545 M222.782266,23.5344336 C219.39835,23.5344336 217.753175,25.2828252 217.753175,28.8794685 C217.753175,32.5948531 219.651357,34.4787692 223.393594,34.4787692 C224.771077,34.4787692 226.529958,34.1372308 226.54758,34.1338741 C226.733035,34.0977902 226.889958,33.9077203 226.889958,33.7193287 L226.889958,32.6414266 C225.937091,32.9057622 224.831916,33.0396084 223.604224,33.0396084 C222.101706,33.0396084 221.006601,32.6607273 220.349538,31.9134545 C219.623664,31.0885594 219.691636,30.1084196 219.706741,29.9577902 C219.666042,29.839049 219.676531,29.7261818 219.737371,29.6376503 C219.800308,29.5453427 219.908979,29.4945734 220.041986,29.4945734 L227.352336,29.4945734 C227.410238,29.0162517 227.439189,28.561007 227.439189,28.1405874 C227.439189,25.0411469 225.915692,23.5344336 222.782266,23.5344336 M223.393594,34.6252028 C219.553594,34.6252028 217.606322,32.6921958 217.606322,28.8794685 C217.606322,25.2354126 219.348,23.3875804 222.782266,23.3875804 C225.969818,23.3875804 227.586042,24.987021 227.586042,28.1405874 C227.586042,28.5861818 227.553734,29.0691189 227.490378,29.5768112 L227.482406,29.641007 L220.041986,29.641007 C219.95849,29.641007 219.893455,29.6695385 219.85821,29.7207273 C219.822965,29.7723357 219.820028,29.8440839 219.850238,29.9225455 L219.856951,29.9397483 L219.854853,29.9582098 C219.853594,29.9686993 219.733175,30.9920559 220.461147,31.8182098 C221.089259,32.5310769 222.147021,32.8927552 223.604224,32.8927552 C224.858769,32.8927552 225.981986,32.7521958 226.942825,32.4735944 L227.036811,32.4467413 L227.036811,33.7193287 C227.036811,33.9777902 226.829958,34.2286993 226.575273,34.2777902 C226.55765,34.2811469 224.785343,34.6252028 223.393594,34.6252028" id="Fill-47" fill="#FEFEFE"></path>
                <path d="M235.634266,17.5808392 C235.634266,16.7295105 234.941538,15.9612587 234.095664,15.8727273 L98.0160839,1.62335664 C97.1702098,1.53524476 96.4779021,2.15916084 96.4779021,3.00965035 L96.4779021,11.2653147 C96.4779021,12.1162238 96.4103497,13.505035 96.3272727,14.3521678 L92.0509091,58.1890909 C91.9678322,59.0358042 92.5888112,59.6265734 93.4304895,59.5006993 L196.115245,44.1834965 C196.956923,44.058042 198.337343,43.8847552 199.184476,43.7979021 L234.094406,40.2331469 C234.941538,40.1462937 235.634266,39.3797203 235.634266,38.5288112 L235.634266,17.5808392 Z" id="Fill-49"></path>
                <path d="M2.406,14.8243636 C1.75187413,14.2801678 1.90544056,13.7334545 2.74753846,13.6092587 L92.1538322,0.436111888 C92.9955105,0.311916084 93.6131329,0.903104895 93.5254406,1.7493986 L88.026,55.0789091 C87.9383077,55.9256224 87.2216643,56.3552727 86.4345315,56.0351329 L20.3921538,29.176951 C19.6041818,28.8563916 18.4239021,28.1493986 17.7701958,27.6052028 L2.406,14.8243636 Z" id="Fill-51" fill="#FFDD00"></path>
                <g id="Group-55" transform="translate(0.000000, 3.763636)">
                    <mask id="mask-2" fill="white">
                        <use xlink:href="#path-1"></use>
                    </mask>
                    <g id="Clip-54"></g>
                    <path d="M1.53776224,9.70569231 C0.691888112,9.79883916 0,10.5712867 0,11.4226154 L0,44.6861119 C0,45.537021 0.691888112,46.3115664 1.53692308,46.4072308 L88.3107692,56.2140839 C89.1558042,56.3097483 89.8476923,55.6917063 89.8476923,54.8403776 L89.8476923,1.52345455 C89.8476923,0.672545455 89.1558042,0.0528251748 88.3099301,0.145972028 L1.53776224,9.70569231 Z" id="Fill-53" fill="#ED1C24" mask="url(#mask-2)"></path>
                </g>
                <path d="M10.9818042,19.0021259 C10.9818042,18.7776503 11.1655804,18.593035 11.3900559,18.593035 L13.2232028,18.593035 C13.4480979,18.593035 13.6742517,18.7726154 13.7258601,18.9916364 L14.4521538,22.0801678 C14.5037622,22.2987692 14.7299161,22.4775105 14.9548112,22.4775105 L20.6262797,22.4775105 C20.8515944,22.4775105 21.0353706,22.6621259 21.0353706,22.887021 L21.0353706,25.4980699 C21.0353706,25.7242238 20.8515944,25.908 20.6262797,25.908 L15.6169091,25.908 C15.3911748,25.908 15.2073986,26.0913566 15.2073986,26.3166713 L15.2073986,39.2783497 C15.2073986,39.5024056 15.2627832,39.8628252 15.3303357,40.0772308 C15.3303357,40.0772308 16.1741119,42.7570909 18.1125734,42.7570909 L20.6262797,42.7570909 C20.8515944,42.7570909 21.0353706,42.9408671 21.0353706,43.1661818 L21.0353706,45.7751329 C21.0353706,46.000028 20.8515944,46.1833846 20.6262797,46.1833846 L17.4236224,46.1833846 C17.1974685,46.1833846 16.8374685,46.1288392 16.6239021,46.0621259 C16.6239021,46.0621259 10.9818042,44.3179301 10.9818042,40.0075804 L10.9818042,19.0021259 Z" id="Fill-56" fill="#FEFEFE"></path>
                <path d="M34.9993007,35.2760559 C31.3275524,35.2760559 29.491049,36.5704615 29.491049,39.1601119 C29.491049,41.7514406 30.9377622,42.7571748 33.8332867,42.7571748 C36.7565035,42.7571748 39.2337063,41.9805315 41.2581818,40.425986 L41.2581818,35.7338182 C39.1711888,35.4287832 37.0833566,35.2760559 34.9993007,35.2760559 M41.3706294,28.8296224 C41.3559441,27.0304615 39.952028,25.9080839 34.7903497,25.9080839 C32.3236364,25.9080839 29.7952448,26.2886434 27.2072727,27.0480839 L27.2072727,24.0308811 C27.2072727,23.8055664 27.3868531,23.5815105 27.6062937,23.5328392 C27.6062937,23.5328392 32.3236364,22.4775944 34.7903497,22.4775944 C41.9215385,22.4775944 45.4867133,24.9648671 45.4867133,29.9293427 L45.4867133,45.7747972 C45.4867133,46.0001119 45.3029371,46.1834685 45.0776224,46.1834685 L43.518042,46.1834685 C43.2935664,46.1834685 43.0132867,46.026965 42.8945455,45.8352168 L41.8623776,44.1564755 C41.7436364,43.9647273 41.4813986,43.8866853 41.2779021,43.9836084 C41.2779021,43.9836084 36.6516084,46.1834685 33.8332867,46.1834685 C28.119021,46.1834685 25.2646154,44.0582937 25.2646154,39.2285035 C25.2646154,34.3076643 28.5062937,31.8497622 34.9993007,31.8497622 C37.0833566,31.8497622 39.1711888,32.0012308 41.2581818,32.305007" id="Fill-58" fill="#FEFEFE"></path>
                <path d="M58.2184196,34.8015524 C58.3547832,34.6232308 58.3573007,34.3295245 58.2217762,34.1499441 L49.7307273,22.8049091 C49.5952028,22.6257483 49.6694685,22.4776364 49.8939441,22.4776364 L53.989049,22.4776364 C54.2139441,22.4776364 54.5068112,22.6257483 54.6427552,22.8049091 L60.6666713,30.8587552 C60.8017762,31.0387552 61.0220559,31.0387552 61.1563217,30.8579161 L67.1781399,22.8049091 C67.3115664,22.6257483 67.6061119,22.4776364 67.831007,22.4776364 L71.9282098,22.4776364 C72.1522657,22.4776364 72.2273706,22.6257483 72.0918462,22.8053287 L63.6226154,34.1491049 C63.4883497,34.3295245 63.490028,34.6232308 63.6272308,34.8023916 L72.0880699,45.8591748 C72.2248531,46.0379161 72.1522657,46.1835105 71.9282098,46.1835105 L67.831007,46.1835105 C67.6061119,46.1835105 67.3094685,46.0379161 67.1731049,45.860014 L61.163035,38.0910629 C61.024993,37.9131608 60.7996783,37.9131608 60.6624755,38.0902238 L54.6465315,45.860014 C54.5101678,46.0379161 54.2139441,46.1835105 53.989049,46.1835105 L49.8939441,46.1835105 C49.6694685,46.1835105 49.5977203,46.0379161 49.7340839,45.8591748 L58.2184196,34.8015524 Z" id="Fill-60" fill="#FEFEFE"></path>
                <path d="M80.6126853,22.4775944 C80.8388392,22.4775944 81.0226154,22.6617902 81.0226154,22.8871049 L81.0226154,45.7747972 C81.0226154,46.0001119 80.8388392,46.1834685 80.6126853,46.1834685 L77.2023357,46.1834685 C76.9766014,46.1834685 76.7932448,46.0001119 76.7932448,45.7747972 L76.7932448,22.8871049 C76.7932448,22.6617902 76.9766014,22.4775944 77.2023357,22.4775944 L80.6126853,22.4775944 Z M80.6126853,13.7964755 C80.8388392,13.7964755 81.0226154,13.9806713 81.0226154,14.2055664 L81.0226154,17.385986 C81.0226154,17.6108811 80.8388392,17.7959161 80.6126853,17.7959161 L77.2023357,17.7959161 C76.9766014,17.7959161 76.7932448,17.6108811 76.7932448,17.385986 L76.7932448,14.2055664 C76.7932448,13.9806713 76.9766014,13.7964755 77.2023357,13.7964755 L80.6126853,13.7964755 Z" id="Fill-62" fill="#FEFEFE"></path>
                <g id="Group-66" transform="translate(0.000000, 0.406993)">
                    <mask id="mask-4" fill="white">
                        <use xlink:href="#path-3"></use>
                    </mask>
                    <g id="Clip-65"></g>
                    <path d="M93.5257343,1.34223776 C93.613007,0.496363636 92.9958042,-0.0952447552 92.1541259,0.028951049 L11.6337063,11.8934266 C10.7916084,12.0167832 9.41118881,12.1955245 8.56531469,12.2882517 L1.53776224,13.0623776 C0.691888112,13.1555245 0,13.9275524 0,14.7793007 L0,48.0427972 C0,48.8937063 0.691888112,49.6682517 1.53692308,49.7639161 L88.3107692,59.5707692 C89.1558042,59.6664336 89.8476923,59.0483916 89.8476923,58.1970629 L89.8476923,38.5430769 C89.8476923,37.6925874 89.919021,36.3037762 90.0067133,35.4579021 L93.5257343,1.34223776 Z" id="Fill-64" mask="url(#mask-4)"></path>
                </g>
            </g>
        </g>
    </g>
</svg>