<?xml version="1.0" encoding="UTF-8"?>
<svg width="10px" height="14px" viewBox="0 0 10 14" version="1.1" xmlns="http://www.w3.org/2000/svg" xmlns:xlink="http://www.w3.org/1999/xlink">
    <!-- Generator: Sketch 42 (36781) - http://www.bohemiancoding.com/sketch -->
    <title>place copy 4</title>
    <desc>Created with Sketch.</desc>
    <defs></defs>
    <g id="Page-1" stroke="none" stroke-width="1" fill="none" fill-rule="evenodd">
        <g id="reklama_dodaj" transform="translate(-312.000000, -443.000000)" fill="#4A4A4A">
            <g id="place-copy-4" transform="translate(312.000000, 443.000000)">
                <path d="M4.66666667,0 C2.06666667,0 0,2.17 0,4.9 C0,8.54 4.66666667,14 4.66666667,14 C4.66666667,14 9.33333333,8.54 9.33333333,4.9 C9.33333333,2.17 7.26666667,0 4.66666667,0 L4.66666667,0 Z M4.66666667,6.65 C3.73333333,6.65 3,5.88 3,4.9 C3,3.92 3.73333333,3.15 4.66666667,3.15 C5.6,3.15 6.33333333,3.92 6.33333333,4.9 C6.33333333,5.88 5.6,6.65 4.66666667,6.65 L4.66666667,6.65 Z" id="Shape"></path>
            </g>
        </g>
    </g>
</svg>