<?xml version="1.0" encoding="UTF-8"?>
<svg width="35px" height="50px" viewBox="0 0 35 50" version="1.1" xmlns="http://www.w3.org/2000/svg" xmlns:xlink="http://www.w3.org/1999/xlink">
    <!-- Generator: Sketch 42 (36781) - http://www.bohemiancoding.com/sketch -->
    <title>place</title>
    <desc>Created with Sketch.</desc>
    <defs></defs>
    <g id="Page-1" stroke="none" stroke-width="1" fill="none" fill-rule="evenodd">
        <g id="reklama_dodaj" transform="translate(-902.000000, -198.000000)" fill="#D0011B">
            <g id="place" transform="translate(902.000000, 198.000000)">
                <path d="M17.5,0 C7.75,0 0,7.75 0,17.5 C0,30.5 17.5,50 17.5,50 C17.5,50 35,30.5 35,17.5 C35,7.75 27.25,0 17.5,0 L17.5,0 Z M17.5,23.75 C14,23.75 11.25,21 11.25,17.5 C11.25,14 14,11.25 17.5,11.25 C21,11.25 23.75,14 23.75,17.5 C23.75,21 21,23.75 17.5,23.75 L17.5,23.75 Z" id="Shape"></path>
            </g>
        </g>
    </g>
</svg>