<?xml version="1.0" encoding="UTF-8"?>
<svg width="22px" height="23px" viewBox="0 0 22 23" version="1.1" xmlns="http://www.w3.org/2000/svg" xmlns:xlink="http://www.w3.org/1999/xlink">
    <!-- Generator: Sketch 42 (36781) - http://www.bohemiancoding.com/sketch -->
    <title>wb-sunny 2</title>
    <desc>Created with Sketch.</desc>
    <defs></defs>
    <g id="Page-1" stroke="none" stroke-width="1" fill="none" fill-rule="evenodd">
        <g id="kierowcy_zmien" transform="translate(-698.000000, -472.000000)" fill="#4A4A4A">
            <g id="wb-sunny-2" transform="translate(698.000000, 472.000000)">
                <path d="M5.8,4.8 L4,3 L2.5,4.5 L4.3,6.3 L5.8,4.8 L5.8,4.8 Z M3,10.5 L0,10.5 L0,12.5 L3,12.5 L3,10.5 L3,10.5 Z M12,0.6 L10,0.6 L10,3.5 L12,3.5 L12,0.6 L12,0.6 Z M19.5,4.5 L18,3 L16.2,4.8 L17.6,6.2 L19.5,4.5 L19.5,4.5 Z M16.2,18.2 L18,20 L19.4,18.6 L17.6,16.8 L16.2,18.2 L16.2,18.2 Z M19,10.5 L19,12.5 L22,12.5 L22,10.5 L19,10.5 L19,10.5 Z M11,5.5 C7.7,5.5 5,8.2 5,11.5 C5,14.8 7.7,17.5 11,17.5 C14.3,17.5 17,14.8 17,11.5 C17,8.2 14.3,5.5 11,5.5 L11,5.5 Z M10,22.4 L12,22.4 L12,19.5 L10,19.5 L10,22.4 L10,22.4 Z M2.5,18.5 L4,20 L5.8,18.2 L4.4,16.8 L2.5,18.5 L2.5,18.5 Z" id="Shape"></path>
            </g>
        </g>
    </g>
</svg>